<svg class="logo" version="1.1" xmlns="http://www.w3.org/2000/svg" xmlns:xlink="http://www.w3.org/1999/xlink" x="0"
     y="0" viewBox="0 0 159 26" enable-background="new 0 0 159 26" xml:space="preserve">

		<path fill="#34AB52" d="M154.910,9.795 C153.988,9.795 153.527,10.052 153.527,10.567 C153.527,10.851 153.674,11.075 153.965,11.238 C154.257,11.400 154.742,11.590 155.418,11.806 C156.095,12.024 156.576,12.190 156.861,12.304 C157.146,12.420 157.488,12.599 157.886,12.843 C158.629,13.304 159.000,14.073 159.000,15.150 C159.000,16.227 158.612,17.091 157.836,17.741 C157.060,18.392 156.075,18.717 154.881,18.717 C154.085,18.717 153.255,18.571 152.393,18.280 C151.531,17.989 150.754,17.558 150.065,16.990 L151.378,15.079 C152.492,15.960 153.680,16.400 154.941,16.400 C155.325,16.400 155.630,16.322 155.856,16.166 C156.081,16.010 156.194,15.804 156.194,15.546 C156.194,15.289 156.038,15.052 155.726,14.835 C155.415,14.619 154.964,14.415 154.373,14.225 C153.783,14.035 153.332,13.873 153.020,13.737 C152.708,13.602 152.353,13.405 151.955,13.148 C151.146,12.633 150.741,11.871 150.741,10.861 C150.741,9.852 151.139,9.029 151.935,8.392 C152.731,7.755 153.760,7.437 155.020,7.437 C156.280,7.437 157.540,7.871 158.801,8.737 L157.687,10.770 C156.758,10.120 155.833,9.795 154.910,9.795 ZM145.129,3.474 L148.114,3.474 L148.114,18.555 L145.129,18.555 L145.129,3.474 ZM136.094,15.628 C136.611,16.007 137.195,16.197 137.845,16.197 C138.893,16.197 139.755,15.838 140.432,15.120 L142.104,16.969 C140.896,18.135 139.480,18.717 137.855,18.717 C136.230,18.717 134.886,18.206 133.825,17.183 C132.763,16.160 132.232,14.788 132.232,13.066 C132.232,11.346 132.773,9.977 133.855,8.961 C134.936,7.945 136.213,7.437 137.686,7.437 C139.158,7.437 140.409,7.891 141.437,8.799 C142.465,9.707 142.979,10.953 142.979,12.538 L142.979,14.164 L135.178,14.164 C135.271,14.761 135.576,15.249 136.094,15.628 ZM139.954,11.990 C139.888,11.339 139.649,10.838 139.238,10.485 C138.827,10.133 138.326,9.957 137.735,9.957 C137.145,9.957 136.604,10.140 136.113,10.506 C135.622,10.872 135.338,11.366 135.257,11.990 L139.954,11.990 ZM123.795,15.628 C124.312,16.007 124.896,16.197 125.546,16.197 C126.594,16.197 127.456,15.838 128.133,15.120 L129.805,16.969 C128.597,18.135 127.181,18.717 125.556,18.717 C123.931,18.717 122.587,18.206 121.526,17.183 C120.464,16.160 119.934,14.788 119.934,13.066 C119.934,11.346 120.474,9.977 121.556,8.961 C122.637,7.945 123.914,7.437 125.387,7.437 C126.859,7.437 128.110,7.891 129.138,8.799 C130.166,9.707 130.680,10.953 130.680,12.538 L130.680,14.164 L122.879,14.164 C122.972,14.761 123.277,15.249 123.795,15.628 ZM127.656,11.990 C127.589,11.339 127.350,10.838 126.939,10.485 C126.528,10.133 126.027,9.957 125.436,9.957 C124.846,9.957 124.305,10.140 123.815,10.506 C123.323,10.872 123.039,11.366 122.959,11.990 L127.656,11.990 ZM114.839,12.579 C114.839,10.899 114.235,10.059 113.028,10.059 C112.430,10.059 111.909,10.279 111.465,10.719 C111.021,11.160 110.799,11.807 110.799,12.660 L110.799,18.555 L107.813,18.555 L107.813,3.474 L110.799,3.474 L110.799,8.839 C111.701,7.904 112.712,7.437 113.834,7.437 C114.955,7.437 115.900,7.843 116.670,8.656 C117.439,9.469 117.824,10.554 117.824,11.908 L117.824,18.555 L114.839,18.555 L114.839,12.579 ZM99.395,18.555 L97.425,12.599 L95.435,18.555 L92.350,18.555 L88.708,7.620 L91.793,7.620 L93.883,14.225 L95.972,7.620 L98.858,7.620 L100.948,14.225 L103.037,7.620 L106.142,7.620 L102.500,18.555 L99.395,18.555 ZM84.349,12.376 C84.349,10.695 83.745,9.855 82.539,9.855 C81.941,9.855 81.420,10.076 80.976,10.516 C80.531,10.957 80.309,11.604 80.309,12.457 L80.309,18.555 L77.324,18.555 L77.324,7.620 L80.309,7.620 L80.309,8.839 C81.212,7.904 82.227,7.437 83.354,7.437 C84.482,7.437 85.427,7.843 86.191,8.656 C86.953,9.469 87.335,10.553 87.335,11.908 L87.335,18.555 L84.349,18.555 L84.349,12.376 ZM68.289,15.628 C68.806,16.007 69.390,16.197 70.040,16.197 C71.088,16.197 71.951,15.838 72.627,15.120 L74.299,16.969 C73.092,18.135 71.675,18.717 70.050,18.717 C68.425,18.717 67.081,18.206 66.020,17.183 C64.958,16.160 64.428,14.788 64.428,13.066 C64.428,11.346 64.969,9.977 66.050,8.961 C67.131,7.945 68.408,7.437 69.881,7.437 C71.353,7.437 72.604,7.891 73.632,8.799 C74.660,9.707 75.175,10.953 75.175,12.538 L75.175,14.164 L67.373,14.164 C67.466,14.761 67.771,15.249 68.289,15.628 ZM72.150,11.990 C72.083,11.339 71.844,10.838 71.433,10.485 C71.022,10.133 70.521,9.957 69.931,9.957 C69.340,9.957 68.800,10.140 68.309,10.506 C67.817,10.872 67.533,11.366 67.453,11.990 L72.150,11.990 ZM55.990,15.628 C56.507,16.007 57.091,16.197 57.741,16.197 C58.789,16.197 59.651,15.838 60.328,15.120 L62.000,16.969 C60.792,18.135 59.376,18.717 57.751,18.717 C56.126,18.717 54.782,18.206 53.721,17.183 C52.659,16.160 52.129,14.788 52.129,13.066 C52.129,11.346 52.669,9.977 53.751,8.961 C54.832,7.945 56.109,7.437 57.582,7.437 C59.054,7.437 60.305,7.891 61.333,8.799 C62.361,9.707 62.875,10.953 62.875,12.538 L62.875,14.164 L55.074,14.164 C55.167,14.761 55.472,15.249 55.990,15.628 ZM59.850,11.990 C59.784,11.339 59.545,10.838 59.134,10.485 C58.723,10.133 58.222,9.957 57.631,9.957 C57.041,9.957 56.500,10.140 56.010,10.506 C55.518,10.872 55.234,11.366 55.153,11.990 L59.850,11.990 ZM48.188,11.268 C47.750,11.911 47.531,12.762 47.531,13.819 L47.531,18.555 L44.546,18.555 L44.546,7.620 L47.531,7.620 L47.531,9.063 C47.916,8.615 48.397,8.236 48.974,7.925 C49.551,7.613 50.138,7.450 50.736,7.437 L50.755,10.302 L50.178,10.302 C49.289,10.302 48.626,10.625 48.188,11.268 ZM39.889,21.522 C38.788,22.416 37.488,22.863 35.989,22.863 C35.192,22.863 34.380,22.731 33.551,22.467 C32.721,22.203 31.995,21.827 31.371,21.339 L32.525,19.042 C33.507,19.801 34.545,20.181 35.641,20.181 C36.735,20.181 37.601,19.903 38.238,19.347 C38.874,18.791 39.193,17.911 39.193,16.705 C38.250,17.775 37.080,18.311 35.680,18.311 C34.280,18.311 33.100,17.827 32.138,16.857 C31.176,15.889 30.695,14.595 30.695,12.975 C30.695,11.356 31.189,10.028 32.177,8.992 C33.165,7.955 34.297,7.437 35.571,7.437 C36.844,7.437 37.899,7.972 38.735,9.042 L38.735,7.599 L41.720,7.599 L41.720,17.132 C41.720,18.108 41.554,18.974 41.223,19.734 C40.891,20.492 40.446,21.088 39.889,21.522 ZM38.059,10.790 C37.581,10.289 36.990,10.038 36.287,10.038 C35.584,10.038 34.977,10.289 34.466,10.790 C33.955,11.292 33.700,11.976 33.700,12.843 C33.700,13.710 33.949,14.412 34.446,14.947 C34.943,15.482 35.550,15.750 36.267,15.750 C36.984,15.750 37.581,15.485 38.059,14.957 C38.536,14.429 38.775,13.727 38.775,12.853 C38.775,11.979 38.536,11.292 38.059,10.790 ZM12.727,25.996 C5.709,25.996 -0.000,20.165 -0.000,12.997 C-0.000,5.830 5.709,-0.001 12.727,-0.001 C19.745,-0.001 25.455,5.830 25.455,12.997 C25.455,20.165 19.745,25.996 12.727,25.996 ZM12.727,7.558 C9.791,7.558 7.402,9.999 7.402,12.997 C7.402,15.996 9.791,18.437 12.727,18.437 C15.664,18.437 18.053,15.996 18.053,12.997 C18.053,9.999 15.664,7.558 12.727,7.558 Z"></path>
	</svg>