<svg xmlns="http://www.w3.org/2000/svg" viewBox="-6 0 483 92" style="height:24px;width:auto">
    <path fill="#1B70DE"
          d="M2.1 75.3A6 6 0 0 1 0.6 73.9L0 72.9V38.4L0.6 36.4A22 22 0 0 1 38 27.9L40.2 29.9 42.7 27.7C45.3 25.2 47.4 23.7 50.2 22.5 60.5 18.1 73.5 22.9 78.3 33 80.3 37 80.2 36.2 80.3 55.4V72.8L79.7 73.8C78.2 76.6 74 76.6 72.4 73.8L71.8 72.8V56.6C71.8 46.6 71.7 39.9 71.5 39.2A13.7 13.7 0 0 0 59.2 29.4 13.6 13.6 0 0 0 45.1 38.4C44.6 39.9 44.6 41.1 44.6 56.2 44.6 73.8 44.6 73.3 43 74.8 41.8 75.9 39.4 76.1 38 75.3 36 74 36.2 75.3 36 56.3L35.9 39.3 35.2 37.8A14 14 0 0 0 30.4 31.8C23.2 27 13.2 29.5 9.7 37L8.8 38.8 8.7 55.9C8.5 72.8 8.5 73.1 8 73.9 6.6 75.7 4 76.4 2.1 75.3Z"></path>
    <path fill="#1B70DE"
          d="M95.4 91.8C93.6 91.5 90 90.5 89.1 90.1 86.5 88.7 85.9 85.6 87.9 83.7 89.2 82.4 90.2 82.2 93.2 83 96.5 83.9 99.9 83.9 101.7 83 104 81.9 106.7 78.5 107.9 75.2L108.3 74 97.3 50.8C91.3 38 86.3 27.2 86.3 26.6 85.8 24.4 87.3 22.2 89.6 21.6 91.6 21 93.6 21.9 94.7 23.9L103.9 44.3 112.5 63.5C112.5 63.7 112.8 63.7 113 63.5L121 43.7C125.2 32.9 129 23.7 129.3 23.2 130.3 21.9 131.1 21.5 132.7 21.5 134.3 21.5 135.5 22.1 136.3 23.2 136.8 23.9 137 24.5 137 25.8 137 27.5 136.6 28.3 126.6 52.3A2626 2626 0 0 1 115.2 79.2C113.1 83.8 110.2 87.4 107.2 89.4 104.1 91.4 99.2 92.4 95.4 91.8Z"></path>
    <path fill="#1B70DE"
          d="M163.3 75.6A22 22 0 0 1 146 60.1C145.6 58.7 145.5 56.6 145.4 41.6 145.4 30 145.4 24.3 145.6 23.6 146 22.4 147.7 20.9 149 20.6 151 20.2 152.9 21.2 153.9 23 154.3 23.8 154.3 25.4 154.5 40.8V57.8L155.5 59.8C157.8 64.3 162.5 67 167.8 67 173.2 67 177.8 64.3 180 59.8L181 57.8 181.2 40.8A85 85 0 0 1 181.7 23C183.2 20.4 186.4 19.7 188.5 21.7 190.3 23.2 190.2 22.6 190.2 40.3 190.2 57.5 190.2 57.7 191.6 60.3A13.5 13.5 0 0 0 203.8 67C207.5 67 210.6 65.8 213.4 63.2 215.4 61.2 216.6 59 216.9 56.2 217.1 55.2 217.2 47.4 217.2 39 217.2 22.1 217.2 22.8 218.9 21.4 221 19.8 224.1 20.5 225.4 22.9L226 24.1V40.4C226 58 226 59.1 224.6 62.4 222.6 67.4 218.6 71.4 213.4 73.9 210.4 75.3 208.3 75.8 204.9 75.9 198.6 76.3 193 74 187.9 69L185.7 66.9 183.4 69.1A22 22 0 0 1 163.4 75.6Z"></path>
    <path fill="#1B70DE"
          d="M240 75.4C239.3 75 238.8 74.4 238.4 73.6L237.8 72.5V3.8L238.4 2.8A4 4 0 0 1 242 0.5C243.7 0.5 245 1.1 245.9 2.5L246.6 3.5V14.7L246.9 25.8 248.7 24.6C250.7 23.1 253.3 21.8 255.4 21.1 257.8 20.4 263 20.5 266 21.3 273.7 23.3 279.6 29 281.8 36.4 282.4 38.5 282.4 38.7 282.4 55.7V73L281.8 74A5 5 0 0 1 277.9 76C276.5 76 274.8 75 274 73.6L273.4 72.5V56.3C273.4 41.1 273.4 39.9 272.9 38.4 269.5 27.5 252.9 26.4 247.9 36.7L246.9 38.7 246.7 55.7A90 90 0 0 1 246.2 73.5C244.8 75.9 242.2 76.7 239.9 75.5Z"></path>
    <path fill="#1B70DE"
          d="M315 76.4A26.3 26.3 0 0 1 291.4 55.1C290.8 52 290.7 45.8 291.3 42.7A25.8 25.8 0 0 1 319.5 21 23 23 0 0 1 335.1 29.7C338.7 34.3 341.1 41 341.1 46.9 341.1 49.3 340.5 50.6 338.9 51.4 337.9 52 337.8 52 318.9 52H299.9V53L300.5 55.7C302.5 62.3 307.3 66.8 313.5 68.2 315 68.5 316.3 68.6 318.6 68.5 323.5 68.3 327 66.9 330.9 63.8 333.3 61.8 334.5 61.4 335.9 61.8A4 4 0 0 1 338.6 66.8C338.2 68.2 333.6 72 330.1 73.8A30.4 30.4 0 0 1 314.9 76.4Z M331.6 45.2C332.6 44.8 331.8 41.2 330 37.4A15 15 0 0 0 309.3 30.2 18.8 18.8 0 0 0 302.2 37.5C300.5 40.8 299.5 44.8 300.3 45.2 300.8 45.4 331.1 45.4 331.6 45.2Z"></path>
    <path fill="#1B70DE"
          d="M373.4 76.2A26.3 26.3 0 0 1 350.4 48.7C350.4 44 350.4 43.4 351 40.9A26 26 0 0 1 373 21C378.5 20.3 385 21.8 389.3 24.8 396 29.3 400.3 38 400.3 46.7 400.3 48.9 400.3 49.4 399.7 50.2 398.5 52.1 399.5 52 378.4 52 361.9 52 359.4 52 359.4 52.4 359.1 52.9 359.7 55.2 360.5 57.4 361.9 60.8 364.5 64.2 367.5 66 372.2 69 379.4 69.4 385 67 386.7 66.3 389.3 64.7 391.4 63 393.2 61.6 394.3 61.4 395.9 62.2 397.9 63.2 398.7 65.2 397.8 67.2 396.8 69 391.7 72.9 387.8 74.4 384 76 377.8 76.8 373.4 76.3ZM391.3 45.1C391.6 44.9 391.6 44.5 391.1 42.3 389.6 35.7 385.9 31.1 380.7 29.3 378.1 28.3 373.2 28.3 370.7 29.3A16.6 16.6 0 0 0 362.3 36.1C360.4 39.1 358.7 44.6 359.5 45.1 360 45.4 390.8 45.4 391.3 45.1Z"></path>
    <path fill="#1B70DE"
          d="M413.2 75.4A5 5 0 0 1 411.9 74.6C410.4 73.3 410.5 75.3 410.5 37.9 410.5-0.2 410.4 2.4 412.1 0.9 414.4-1.1 418.2 0.3 419.1 3.2 419.2 4.1 419.3 13.1 419.3 38.5L419.2 72.7 418.5 73.7A4.6 4.6 0 0 1 413.2 75.5Z"></path>
    <path fill="#1B70DE"
          d="M443.6 75.9A39.2 39.2 0 0 1 429.6 70.7C427.2 69.1 426.6 68.2 426.6 66.2 426.6 65.1 426.6 64.7 427.3 63.9 428.3 62.9 429.7 62.3 430.9 62.5 431.3 62.6 432.9 63.4 434.2 64.2 441.6 68.6 450 69.8 455.1 67.2 458.9 65.2 460.3 60.2 457.8 57.3 456.1 55.3 453.3 54 446.3 52 436.2 49 432.1 46.5 429.9 42 429.1 40.3 429.1 39.8 428.9 37.1 428.9 33.6 429.3 31.6 430.9 28.9 432.2 26.8 433.2 25.8 435.6 24.2 441.2 20.5 449.2 20.1 458.2 23 461.6 24.2 464.5 25.6 465.2 26.5 466.9 28.7 466.4 31.5 464.2 32.7 462.8 33.3 461.4 33.2 459.2 32A25.5 25.5 0 0 0 446.1 28.8C443.1 29 441 29.8 439.4 31.3 437.4 33.1 436.9 36.1 438.1 38.3 439.4 40.4 441.8 41.7 450.1 44.3 458.3 46.9 461.4 48.4 464.2 51.3 469.2 56.5 468.5 66.3 462.5 71.6A22.6 22.6 0 0 1 454.3 75.6C451.6 76.3 446.5 76.4 443.6 75.9Z"></path>
</svg>