<?xml version="1.0" encoding="utf-8"?>
<!-- Generator: Adobe Illustrator 19.2.1, SVG Export Plug-In . SVG Version: 6.00 Build 0)  -->
<svg version="1.1" id="layer" xmlns="http://www.w3.org/2000/svg" xmlns:xlink="http://www.w3.org/1999/xlink" x="0px" y="0px"
	 viewBox="25 220 600 105" style="enable-background:new 0 0 652 652;" xml:space="preserve">
<style type="text/css">
	.st0{fill:#0BA1E2;}
	.st1{fill:#005478;}
</style>
<path class="st0" d="M47.5,318.8c-9.4,0-17.1-4.3-21-11.8l-0.4-0.7l7.2-5.5l0.5,0.9c3.2,5.3,7.7,7.9,13.4,7.9c5.2,0,8.6-2.4,8.6-6.2
	c0-3.4-2.6-4.7-7.3-6.7l-6-2.7c-6-2.6-13-6.8-13-15c0-8.5,7.5-14.8,17.7-14.8c8.2,0,14.8,3.6,18,9.9l0.4,0.7l-7,5.5l-0.6-0.9
	c-2.5-4-6.2-6-10.7-6c-3.5,0-7.4,1.4-7.4,5.3c0,3.2,2.5,4.5,7,6.5l6,2.6c6.9,3.1,13.3,7.1,13.3,15.4
	C66.4,312.4,58.6,318.8,47.5,318.8 M124,317.9h-10v-22.6H88.2v22.6h-10V265h10v21.1h25.7V265h10V317.9z M152.4,297.7h15.1l-7.6-17.2
	L152.4,297.7z M187.4,317.9h-10.9l-5.2-11.4h-23l-5.2,11.4h-10.9l24.9-53.3h5.5L187.4,317.9z M205.8,287.9h12c5.4,0,8.6-2.6,8.6-6.8
	c0-4.3-3.3-7-8.6-7h-12V287.9z M239.2,317.9h-11.6l-13.8-20.8h-8v20.8h-10V265h22.2c11,0,18.7,6.6,18.7,16c0,7.3-4.6,13.1-12.1,15.2
	L239.2,317.9z M289.4,317.9h-38.8V265h38.3v9.2h-28.3v12.1h25.9v9h-25.9v13.4h28.7V317.9z"/>
<path class="st1" d="M303.4,264.5v53.4h10v-33.8l30.3,34.1h5.5V265h-10v33.8l-29.9-33.9l-0.3-0.3H303.4z M388.1,273.5
	c-10.1,0-17.4,7.5-17.4,17.9c0,10.5,7.3,18.1,17.4,18.1c10.1,0,17.4-7.6,17.4-18.1C405.5,281.2,398.1,273.5,388.1,273.5 M388,318.8
	c-15.6,0-27.7-12-27.7-27.3c0-15.3,12.2-27.3,27.7-27.3c15.6,0,27.8,12,27.8,27.3C415.8,306.8,403.6,318.8,388,318.8 M477.2,318.3
	h-5.5l-13.9-35.6l-13.7,35.6h-5.5l-0.3-0.6L418.7,265h10.8l0.3,0.6l11.9,33.5l13.5-34.5h5.5l0.2,0.6l13.3,33.8l12.1-34H497
	L477.2,318.3z M609,226.2L609,226.2l-63,63v-35.3v-0.1l0,0l-37.1-27.7l0,0h-19.1l0.1,0.1l43.6,32.7v59.7v0.1l0.1-0.1l92.6-92.4
	l0.1-0.1H609z M123.7,399c0-1.7,1-4.9,4.9-4.9h6.9c3.1,0,4.8,2.3,4.8,5c0,2.5-1.8,5-4.9,5h-6.7c-1.4,0-1.9,0.9-1.9,1.6v1.6H140v3.2
	h-16.3v-4.8c0-2.6,2.1-4.8,5.1-4.8h6.5c1.1,0,1.9-0.6,1.9-1.8c0-0.9-0.4-1.8-1.8-1.8h-6.8c-1.4,0-1.8,1-1.8,1.7H123.7L123.7,399z
	 M174.6,380.8c0-1.1-0.6-2.3-2.1-2.3h-7.8v4.7h7.8C174.1,383.1,174.6,381.8,174.6,380.8 M177.8,388v3.5h-3.2v-3.4
	c0-0.9-0.7-1.9-2.1-1.9h-7.8v5.2h-3.2v-16.3h11.2c3.4,0,5.1,2.7,5.1,5.3c0,2.6-0.9,3.5-1.7,4.1C177.1,385.3,177.8,386.4,177.8,388
	 M164.5,399.1c0-1.2,0.8-1.9,1.9-1.9h6.2c1.2,0,1.9,0.8,1.9,1.9v6.3c0,1.2-0.8,1.9-1.9,1.9h-6.2c-1.2,0-1.9-0.8-1.9-1.9V399.1z
	 M161.3,405.7c0,2.7,2.2,4.9,4.9,4.9h6.8c2.7,0,4.9-2.2,4.9-4.9v-6.9c0-2.7-2.2-4.9-4.9-4.9h-6.8c-2.7,0-4.9,2.2-4.9,4.9V405.7z
	 M128.8,388.4c-1.2,0-1.9-0.8-1.9-1.9v-6c0-1.2,0.8-1.9,1.9-1.9h11.1v-3.2h-11.4c-2.7,0-4.9,2.2-4.9,4.9v6.5c0,2.7,2.2,4.9,4.9,4.9
	h11.4v-3.2L128.8,388.4L128.8,388.4z M155.7,386.3v5.2h3.2V380c0-2.7-2.2-4.9-4.9-4.9h-6.5c-2.7,0-4.9,2.2-4.9,4.9v11.5h3.2v-5.2
	H155.7z M145.8,383.1v-2.9c0-1.2,0.8-1.9,1.9-1.9h6c1.2,0,1.9,0.8,1.9,1.9v2.9H145.8z M155.7,407.2h-8.1c-1.2,0-1.9-0.8-1.9-1.9v-6
	c0-1.2,0.8-1.9,1.9-1.9h11.3v-3.2h-11.5c-2.7,0-4.9,2.2-4.9,4.9v6.5c0,2.7,2.2,4.9,4.9,4.9h11.5v-9.6h-8.2v3.1h5V407.2z
	 M104.1,370.5c0-4.9,4-8.7,8.7-8.7h75.6c4.8,0,8.7,3.9,8.7,8.7v44.6c0,4.9-4,8.7-8.7,8.7h-75.6c-4.8,0-8.7-3.9-8.7-8.7L104.1,370.5
	L104.1,370.5z M188.5,420.7c3.1,0,5.5-2.5,5.5-5.5v-44.6c0-3.1-2.5-5.5-5.5-5.5h-75.6c-3.1,0-5.5,2.5-5.5,5.5v44.6
	c0,3.1,2.5,5.5,5.5,5.5H188.5z M317.9,377.3h6.1v6.1h-6.1V377.3z M302.8,407.7h6.1v-14.4c1-1.3,2.8-2.1,5.2-2.1
	c0.3,0,1.1,0.1,1.3,0.1c0,0,0-5,0-5.6c-4.5,0-6.5,1.7-6.5,1.7v-1.7h-6.1V407.7z M277.9,407.7h8c8,0,13.9-3.5,13.9-15.3
	c0-11.7-5.8-15.1-13.9-15.1h-8V407.7z M284,402.5v-20h2.4c5.3,0,7.3,2.8,7.3,9.9c0,7.3-2,10.1-7.2,10.1H284z M317.9,407.7h6.1v-21.9
	h-6.1V407.7z M355.3,408.2c4,0,6.7-1.8,8.5-4.5l-3.5-2.8c-0.9,1.4-2.6,2.8-4.7,2.8c-2.2,0-4.4-1.6-4.4-4.7h13.1v-1.8
	c0-8.4-4.1-11.8-9-11.8c-4.5,0-9.4,3.1-9.4,11.4C345.9,405.2,350.1,408.2,355.3,408.2 M351.3,394.7c0.3-3.5,2.4-4.6,4-4.6
	c1.9,0,3.4,1.4,3.6,4.6H351.3z M339.8,385.8l-3.7,14.9l-3.7-14.9h-6.2l6.4,21.9h6.9l6.4-21.9H339.8L339.8,385.8z M383.1,377.3v18.1
	c-0.8-1.8-1.3-2.8-2.1-4.5l-7-13.7h-6.5v30.4h6.1v-18.6c0.7,1.5,1.1,2.4,1.9,3.8l7.9,14.7h5.8v-30.4H383.1L383.1,377.3z
	 M391.8,396.8c0-8.2,4.6-11.4,9.7-11.4c5,0,9.7,3.2,9.7,11.4c0,8.2-4.7,11.4-9.7,11.4C396.6,408.2,391.8,405,391.8,396.8
	 M405.8,396.8c0-4.1-1.6-6.8-4.2-6.8c-2.5,0-4.2,2.3-4.2,6.8c0,4.1,1.4,6.8,4.1,6.8C404,403.7,405.8,401.3,405.8,396.8 M433.8,385.8
	l-2.9,14.9l-2.6-14.9l0,0h-5.6l0,0l-2.6,14.9l-2.9-14.9h-5.2l5.1,21.9h6.1l2.4-13l0,0l0,0l2.4,13h6.1l5.1-21.9H433.8z M255.2,377.3
	h-13c-2.1,0-3.9,1.8-3.9,3.9v2.3l10.7,3.3L255.2,377.3z M248.1,388.5l-9.8-3.1v14.3l6.4-2.6L248.1,388.5z M260.3,390.3l5.1-13
	c-0.2,0-0.4-0.1-0.6-0.1h-7.3l-6.6,10.1L260.3,390.3z M268.8,392.9v-3.7l-5.1,2.1L268.8,392.9z M238.3,401.8v2
	c0,1.6,0.9,2.9,2.3,3.6l3.1-7.8L238.3,401.8z M268.8,387.2v-6c0-1.3-0.6-2.4-1.6-3.1l-4.6,11.7L268.8,387.2z M255.4,407.7h9.4
	c2.1,0,3.9-1.8,3.9-3.9v-8.9l-7.3-2.3L255.4,407.7z M246.2,398.6l-3.6,9.2h10.9l5.7-14.5L246.2,398.6z M247.2,396.1l10.9-4.5
	l-8.1-2.5L247.2,396.1z"/>
</svg>
