<?xml version="1.0" encoding="utf-8"?>
<!-- Generator: Adobe Illustrator 19.2.1, SVG Export Plug-In . SVG Version: 6.00 Build 0)  -->
<svg version="1.1" id="layer" xmlns="http://www.w3.org/2000/svg" xmlns:xlink="http://www.w3.org/1999/xlink" x="0px" y="0px"
	 viewBox="0 190 652 255" style="enable-background:new 0 0 652 652;" xml:space="preserve">
<style type="text/css">
	.st0{fill:#1D1D1B;}
	.st1{fill:#EF7D00;}
</style>
<g id="Layer_2">
	<g id="Ebene_1">
		<path class="st0" d="M478.4,296.8L452,333.9l61,89.3V296.8H478.4z M295.8,304.4v114.4l57.6-85.6l-27-35.4
			c22.1-5.8,42.8-15.9,60.9-29.8l17.4,22.1l33-49.9h187.7v56.6h-42.2v138.2H437.7l-37.2-55.5L361.8,435H225v-38
			c-9.8,26.7-40.9,43.3-102.4,43.3c-91.3,0-95.8-32.3-97.2-69.2h72.2c0.2,11,2.1,19,6.7,24.3c5.2,5.6,12.6,8.5,20.3,8
			c14.7,0,30.5-4.1,30.5-20.1c0-3.3-1.1-6.5-3-9.1c-9.7-12.8-90.1-22.2-112.7-45.6c-9.1-9.4-11.9-23.4-11.9-34.8
			c0-43.4,33.8-63.2,101.1-63.2c71.5,0,88.5,25,89.4,66.1h-69.5c-0.5-11-3.8-19.7-8.6-23.7c-4.3-3.9-10.1-5.9-15.9-5.5
			c-14.9,0.3-22.8,6.7-22.8,16.7c-0.1,3.3,1,6.5,3,9.1c10.9,12.5,88.7,21.4,111.1,45.2c4.3,4.4,7.6,9.7,9.7,15.4v-46
			C248.7,309,272.4,307.8,295.8,304.4z"/>
		<path class="st1" d="M225,240.1c72.1,5.3,112.7-15.2,126.6-41.9h73.5c-22.1,64-91.1,104.1-200.2,98.7V240.1L225,240.1z"/>
		<path class="st0" d="M390.5,453.6"/>
	</g>
</g>
</svg>
